<svg width="1920" height="1205" viewBox="0 0 1920 1205" fill="none" xmlns="http://www.w3.org/2000/svg">
    <ellipse cx="1966" cy="-15.5" rx="777" ry="929.5" fill="url(#paint0_radial_954:4545)" fill-opacity="0.09"/>
    <ellipse cx="-11.5" cy="-54.5" rx="789.5" ry="734.5" fill="url(#paint1_radial_954:4554)" fill-opacity="0.13"/>
    <g opacity="0.2" filter="url(#filter0_d_954:4554)">
        <circle cx="123.179" cy="1002.18" r="3.67647" transform="rotate(-8.48133 123.179 1002.18)" fill="blue"/>
        <circle cx="1407.18" cy="881.179" r="3.67647" transform="rotate(-8.48133 1407.18 881.179)" fill="#60E6C5"/>
        <circle cx="1785.18" cy="601.179" r="3.67647" transform="rotate(-8.48133 1785.18 601.179)" fill="#60E6C5"/>
        <circle cx="1633.18" cy="254.179" r="3.67647" transform="rotate(-8.48133 1633.18 254.179)" fill="#60E6C5"/>
        <circle cx="1123.18" cy="821.179" r="3.67647" transform="rotate(-8.48133 1123.18 821.179)" fill="#60E6C5"/>
        <circle cx="378.178" cy="195.179" r="3.67647" transform="rotate(-8.48133 378.178 195.179)" fill="#60E6C5"/>
        <circle cx="175.178" cy="649.178" r="3.67647" transform="rotate(-8.48133 175.178 649.178)" fill="#60E6C5"/>
        <circle cx="1075.18" cy="575.179" r="3.67647" transform="rotate(-8.48133 1075.18 575.179)" fill="#60E6C5"/>
        <circle cx="140.178" cy="163.178" r="3.67647" transform="rotate(-8.48133 140.178 163.178)" fill="#60E6C5"/>
        <circle cx="1604.18" cy="999.179" r="3.67647" transform="rotate(-8.48133 1604.18 999.179)" fill="#60E6C5"/>
        <circle cx="532.178" cy="1021.18" r="3.67647" transform="rotate(-8.48133 532.178 1021.18)" fill="#60E6C5"/>
        <circle cx="1590.18" cy="794.179" r="3.67647" transform="rotate(-8.48133 1590.18 794.179)" fill="#60E6C5"/>
    </g>
    <defs>
        <filter id="filter0_d_954:4554" x="88.5017" y="128.501" width="1731.35" height="927.354" filterUnits="userSpaceOnUse" color-interpolation-filters="sRGB">
            <feFlood flood-opacity="0" result="BackgroundImageFix"/>
            <feColorMatrix in="SourceAlpha" type="matrix" values="0 0 0 0 0 0 0 0 0 0 0 0 0 0 0 0 0 0 127 0" result="hardAlpha"/>
            <feOffset/>
            <feGaussianBlur stdDeviation="15.5"/>
            <feComposite in2="hardAlpha" operator="out"/>
            <feColorMatrix type="matrix" values="0 0 0 0 0.21375 0 0 0 0 0.895464 0 0 0 0 0.93625 0 0 0 1 0"/>
            <feBlend mode="normal" in2="BackgroundImageFix" result="effect1_dropShadow_954:4554"/>
            <feBlend mode="normal" in="SourceGraphic" in2="effect1_dropShadow_954:4554" result="shape"/>
        </filter>
        <radialGradient id="paint0_radial_954:4554" cx="0" cy="0" r="1" gradientUnits="userSpaceOnUse" gradientTransform="translate(1966 -15.5) rotate(90) scale(929.5 777)">
            <stop stop-color="#52D784"/>
            <stop offset="0.802083" stop-color="#52D784" stop-opacity="0"/>
        </radialGradient>
        <radialGradient id="paint1_radial_954:4554" cx="0" cy="0" r="1" gradientUnits="userSpaceOnUse" gradientTransform="translate(-11.5 -54.5) rotate(90) scale(734.5 789.5)">
            <stop stop-color="#6CCAE8"/>
            <stop offset="1" stop-color="#5ECFD7" stop-opacity="0"/>
        </radialGradient>
    </defs>
</svg>